<svg xmlns="http://www.w3.org/2000/svg" xmlns:xlink="http://www.w3.org/1999/xlink" viewBox="0 0 462 111.4" enable-background="new 0 0 462 111.4"><style>.st0{fill:#7CAFC6;} .st1{fill:#1A6881;} .st2{fill:#FFFFFF;} .st3{clip-path:url(#SVGID_2_);fill:url(#SVGID_3_);} .st4{clip-path:url(#SVGID_2_);fill:none;} .st5{clip-path:url(#SVGID_2_);fill-rule:evenodd;clip-rule:evenodd;fill:url(#SVGID_4_);} .st6{clip-path:url(#SVGID_2_);} .st7{display:none;opacity:0.2;fill:#231F20;} .st8{display:none;fill:#F15B2B;} .st9{filter:url(#Adobe_OpacityMaskFilter);} .st10{filter:url(#Adobe_OpacityMaskFilter_1_);} .st11{mask:url(#XMLID_4_);fill:url(#XMLID_10_);} .st12{display:none;opacity:0.45;fill:url(#XMLID_11_);} .st13{fill:#146DAB;} .st14{filter:url(#Adobe_OpacityMaskFilter_2_);} .st15{filter:url(#Adobe_OpacityMaskFilter_3_);} .st16{mask:url(#XMLID_18_);fill:url(#XMLID_19_);} .st17{opacity:0.45;fill:url(#XMLID_27_);} .st18{opacity:0.1;fill:#FFFFFF;} .st19{filter:url(#Adobe_OpacityMaskFilter_4_);} .st20{filter:url(#Adobe_OpacityMaskFilter_5_);} .st21{mask:url(#XMLID_28_);fill:url(#XMLID_29_);} .st22{opacity:0.45;fill:url(#XMLID_30_);} .st23{clip-path:url(#SVGID_2_);fill:#004159;} .st24{opacity:0.4;} .st25{fill:#004159;} .st26{display:none;} .st27{display:inline;} .st28{font-family:&apos;TrajanPro-Bold&apos;;} .st29{font-size:82px;} .st30{letter-spacing:-2;} .st31{letter-spacing:-4;} .st32{fill:url(#SVGID_5_);} .st33{fill:url(#SVGID_6_);} .st34{fill:url(#SVGID_7_);} .st35{fill:url(#SVGID_8_);} .st36{fill:url(#SVGID_9_);} .st37{fill:url(#SVGID_10_);} .st38{fill:#0089CF;} .st39{font-family:&apos;HelveticaNeueLTStd-BdEx&apos;;} .st40{font-size:15px;} .st41{letter-spacing:1;} .st42{fill:url(#SVGID_11_);} .st43{fill:url(#SVGID_12_);} .st44{fill:url(#SVGID_13_);} .st45{fill:url(#SVGID_14_);} .st46{fill:url(#SVGID_15_);} .st47{fill:url(#SVGID_16_);}</style><g id="skyline"><path class="st0" d="M24.7 46.7h15v39h-15z"/><path class="st0" d="M38.7 34.8h16v46.8h-16z"/><path class="st0" d="M52.3 49.7H63v30H52.3z"/><path class="st0" d="M59.3 24.3H69V77h-9.7zm16 16.4h16V76h-16z"/><path class="st0" d="M86 60.3h11.7v27H86zM67.3 55h10v21.7h-10z"/></g><g id="house"><path class="st1" d="M51.9 71.6L31 52.3 10.1 71.6h5.7v17.1h30.4V71.6z"/><path class="st2" d="M29.2 60.5H33v3.8h-3.8z"/></g><g id="mask"><defs><circle id="SVGID_1_" cx="56.3" cy="56" r="54"/></defs><clipPath id="SVGID_2_"><use xlink:href="#SVGID_1_" overflow="visible"/></clipPath><radialGradient id="SVGID_3_" cx="56.423" cy="55.737" r="54.259" gradientUnits="userSpaceOnUse"><stop offset="0" stop-color="#2484C6" stop-opacity=".12"/><stop offset="1" stop-color="#00AEEF" stop-opacity=".4"/></radialGradient><path class="st3" d="M2.2 1.5h108.5V110H2.2z"/><circle class="st4" cx="56.3" cy="56" r="54"/><linearGradient id="SVGID_4_" gradientUnits="userSpaceOnUse" x1="56.49" y1="120.822" x2="56.49" y2="72.231"><stop offset="0" stop-color="#60C3AD"/><stop offset="1" stop-color="#44C8F5"/></linearGradient><path class="st5" d="M.5 82.3s18.5 11.8 60.8-6c0 0 32-12.3 51.3 5.8l.2 38.7H.2"/><g id="XMLID_1_" class="st6"><path id="XMLID_26_" class="st7" d="M20.1 77.4c-1.3-2.7-2.2-5.6-2.6-8.6C15 50.2 31 33.3 53.4 31.2 75.8 29.1 96 42.5 98.5 61.1c.2 1.6.3 3.1.3 4.6.5-2.8.5-5.8.1-8.7-2.6-19.2-23.4-33-46.5-30.8-23 2.2-39.6 19.5-37 38.7.7 4.6 2.3 8.8 4.7 12.5z"/><path id="XMLID_25_" class="st7" d="M68.9 78.5c3.6-1 7.3-1.8 11-2.2 3.6-.4 7.2-.5 10.5-.2s6.5.9 9.3 1.7c2.8.8 5.2 1.8 7.2 2.7 2 1 3.8 1.9 5.1 2.7 1.3.8 2.4 1.5 3 2 .7.5 1 .7 1 .7s-.1-.3-.4-.9c-.3-.6-.8-1.4-1.7-2.5-1.7-2.1-4.6-5-10.5-7.7-2.9-1.3-6.6-2.5-11-3.3-4.3-.8-9.3-1-14.2-.7-4.9.3-9.8 1.1-14.3 2.2s-8.8 2.5-12.7 4.1c-1.8.7-3.7 1.5-5.5 2.2-1.7.6-3.4 1.3-5.2 1.8-3.6 1.2-7.2 2.1-10.8 2.7-3.6.6-7.1.9-10.4.8-3.3-.1-6.4-.6-9.1-1.4-2.7-.8-5.1-1.7-7.1-2.7-1.9-1-3.6-2-4.8-2.8-1.2-.9-2.2-1.6-2.8-2.1-.6-.5-.9-.8-.9-.8l.3.9c.3.6.6 1.5 1.4 2.5.7 1.1 1.7 2.4 3.3 3.7 1.6 1.4 3.8 2.9 6.8 4.2 1.5.7 3.2 1.3 5.2 1.8 1.9.5 4.1 1 6.3 1.2 4.5.6 9.5.5 14.3 0 4.8-.6 9.4-1.6 13.8-2.8 2.2-.6 4.3-1.3 6.4-2.1 1.9-.7 3.8-1.5 5.7-2.2 3.5-1.2 7.2-2.4 10.8-3.5z"/><path id="XMLID_24_" class="st7" d="M118.1 90c-.3-.3-.7-.6-1-.9-.2-.2-.4-.3-.6-.5-.2-.2-.4-.4-.7-.5-.5-.4-1-.7-1.5-1.1-.3-.2-.5-.4-.9-.6l-.9-.6c-.3-.2-.6-.4-1-.6-.3-.2-.7-.4-1.1-.6-.4-.2-.7-.4-1.1-.6l-1.2-.6-1.2-.6c-.4-.2-.9-.4-1.3-.5-.4-.2-.9-.4-1.4-.5-.5-.2-.9-.3-1.4-.5-.2-.1-.5-.2-.7-.2-.2-.1-.5-.1-.7-.2-.5-.1-1-.3-1.5-.4-.1 0-.3-.1-.4-.1l-.4-.1c-.3-.1-.5-.1-.8-.2-.3-.1-.5-.1-.8-.2-.3-.1-.5-.1-.8-.2-1.1-.2-2.1-.4-3.2-.5l-.8-.1c-.3 0-.5-.1-.8-.1-.6 0-1.1-.1-1.7-.1-2.2-.1-4.4-.2-6.6-.1-1.1 0-2.2.1-3.2.2-1.1.1-2.1.2-3.1.4-2 .3-4 .7-5.8 1.1-1.8.4-3.5.9-5 1.4-1.5.5-2.9 1-4 1.5-.3.1-.6.2-.8.4-.3.1-.5.2-.8.3-.5.2-.9.4-1.3.7-.8.4-1.4.8-1.8 1-.4.3-.6.4-.6.4s.3-.1.7-.2c.5-.1 1.2-.3 2-.6.4-.1.9-.2 1.5-.4.5-.1 1.1-.3 1.7-.4.3-.1.6-.1 1-.2.3-.1.7-.1 1-.2.7-.1 1.4-.3 2.2-.4.4-.1.8-.1 1.2-.2.2 0 .4-.1.6-.1.2 0 .4-.1.6-.1.4-.1.8-.1 1.3-.2.4-.1.9-.1 1.3-.2 1.8-.2 3.6-.4 5.5-.6.2 0 .5 0 .7-.1h.7c.5 0 1-.1 1.5-.1h3.1c2 0 4.1 0 6.1.2.5 0 1 .1 1.5.1.3 0 .5.1.8.1l.8.1c1 .1 2 .3 3 .4.2 0 .5.1.7.1.2 0 .5.1.7.1.2 0 .5.1.7.1l.4.1c.1 0 .2.1.4.1.5.1.9.2 1.4.3.2.1.5.1.7.2.2.1.5.1.7.2.5.1.9.2 1.3.3.2.1.4.1.7.2.2.1.4.1.6.2.4.1.9.3 1.3.4.4.1.8.3 1.2.4.4.1.8.3 1.2.4.4.2.8.3 1.1.4.4.1.7.3 1.1.4.4.2.7.3 1 .5 1.4.6 2.6 1.2 3.7 1.7.5.3 1 .5 1.5.8.2.1.5.2.7.4l.6.3c1.5.9 2.4 1.4 2.4 1.4s-.8-.9-2-2.1z"/><path id="XMLID_23_" class="st8" d="M16.8 68.2c-2.5-18.6 13.5-35.5 35.9-37.6 22.4-2.1 42.6 11.3 45.1 29.9.2 1.6.3 3.1.3 4.6.5-2.8.5-5.8.1-8.7-2.6-19.2-23.4-33-46.5-30.8-23 2.2-39.6 19.5-37 38.7.6 4.5 2.2 8.7 4.7 12.5-1.3-2.6-2.2-5.5-2.6-8.6z"/><defs><filter id="Adobe_OpacityMaskFilter" filterUnits="userSpaceOnUse" x="14.5" y="25.4" width="84" height="51.4"><feFlood result="back" flood-color="#fff" flood-opacity="1"/><feBlend in="SourceGraphic" in2="back"/></filter></defs><mask maskUnits="userSpaceOnUse" x="14.5" y="25.4" width="84" height="51.4" id="XMLID_4_"><g id="XMLID_20_" class="st9"><defs><filter id="Adobe_OpacityMaskFilter_1_" filterUnits="userSpaceOnUse" x="14.5" y="25.4" width="84" height="51.4"><feFlood result="back" flood-color="#fff" flood-opacity="1"/><feBlend in="SourceGraphic" in2="back"/></filter></defs><linearGradient id="XMLID_10_" gradientUnits="userSpaceOnUse" x1="13.205" y1="59.846" x2="94.701" y2="40.462"><stop offset="0"/><stop offset=".043" stop-color="#272727"/><stop offset=".109" stop-color="#5C5C5C"/><stop offset=".176" stop-color="#8A8A8A"/><stop offset=".243" stop-color="#B0B0B0"/><stop offset=".309" stop-color="#CDCDCD"/><stop offset=".374" stop-color="#E2E2E2"/><stop offset=".438" stop-color="#EEE"/><stop offset=".5" stop-color="#F2F2F2"/><stop offset=".562" stop-color="#EEE"/><stop offset=".626" stop-color="#E2E2E2"/><stop offset=".691" stop-color="#CDCDCD"/><stop offset=".757" stop-color="#B0B0B0"/><stop offset=".824" stop-color="#8A8A8A"/><stop offset=".891" stop-color="#5C5C5C"/><stop offset=".957" stop-color="#272727"/><stop offset="1"/></linearGradient><path id="XMLID_21_" class="st11" d="M16.8 68.2c-2.5-18.6 13.5-35.5 35.9-37.6 22.4-2.1 42.6 11.3 45.1 29.9.2 1.6.3 3.1.3 4.6.5-2.8.5-5.8.1-8.7-2.6-19.2-23.4-33-46.5-30.8-23 2.2-39.6 19.5-37 38.7.6 4.5 2.2 8.7 4.7 12.5-1.3-2.6-2.2-5.5-2.6-8.6z"/></g></mask><linearGradient id="XMLID_11_" gradientUnits="userSpaceOnUse" x1="13.205" y1="59.846" x2="94.701" y2="40.462"><stop offset="0" stop-color="#151011"/><stop offset=".011" stop-color="#1D181A"/><stop offset=".082" stop-color="#484243"/><stop offset=".154" stop-color="#726C6C"/><stop offset=".225" stop-color="#9C9696"/><stop offset=".295" stop-color="#C0BDBD"/><stop offset=".365" stop-color="#DEDCDC"/><stop offset=".434" stop-color="#F3F2F2"/><stop offset=".5" stop-color="#FFF"/><stop offset=".566" stop-color="#F3F2F2"/><stop offset=".635" stop-color="#DEDCDC"/><stop offset=".705" stop-color="#C0BDBD"/><stop offset=".775" stop-color="#9C9696"/><stop offset=".846" stop-color="#726C6C"/><stop offset=".918" stop-color="#484243"/><stop offset=".989" stop-color="#1D181A"/><stop offset="1" stop-color="#151011"/></linearGradient><path id="XMLID_17_" class="st12" d="M16.8 68.2c-2.5-18.6 13.5-35.5 35.9-37.6 22.4-2.1 42.6 11.3 45.1 29.9.2 1.6.3 3.1.3 4.6.5-2.8.5-5.8.1-8.7-2.6-19.2-23.4-33-46.5-30.8-23 2.2-39.6 19.5-37 38.7.6 4.5 2.2 8.7 4.7 12.5-1.3-2.6-2.2-5.5-2.6-8.6z"/><path id="XMLID_16_" class="st13" d="M114.9 84.4c-.3-.6-.8-1.4-1.7-2.5-1.7-2.1-4.6-5-10.5-7.7-2.9-1.3-6.6-2.5-11-3.3-4.3-.8-9.3-1-14.2-.7-4.9.3-9.8 1.1-14.3 2.2s-8.8 2.5-12.7 4.1c-1.8.7-3.7 1.5-5.5 2.2-1.7.6-3.4 1.3-5.2 1.8-3.6 1.1-7.2 2.1-10.8 2.7-3.6.6-7.1.9-10.4.8-3.3-.1-6.4-.6-9.1-1.4-2.6-.7-5-1.6-7-2.6-1.9-1-3.6-2-4.8-2.8-1.2-.9-2.2-1.6-2.8-2.1-.6-.5-.9-.8-.9-.8l.3.9c.3.6.6 1.5 1.4 2.5.7 1.1 1.7 2.4 3.3 3.7 1.6 1.4 3.8 2.9 6.8 4.2 1.5.7 3.3 1.3 5.2 1.8 1.9.5 4.1 1 6.3 1.2 4.5.6 9.5.5 14.3 0 4.8-.6 9.4-1.6 13.8-2.8 2.2-.6 4.3-1.3 6.4-2.1 1.9-.7 3.8-1.5 5.7-2.2 3.4-1.4 7.1-2.6 10.7-3.7 3.7-1 7.3-1.8 11-2.2 3.6-.4 7.2-.5 10.5-.2s6.5.9 9.3 1.7c2.8.8 5.2 1.8 7.2 2.7 2 1 3.8 1.9 5.1 2.7 1.3.8 2.4 1.5 3 2 .7.5 1 .7 1 .7s0-.2-.4-.8z"/><path id="XMLID_15_" class="st13" d="M56.5 85.4s.2-.1.6-.4c.4-.2 1-.6 1.8-1 .4-.2.8-.4 1.3-.7.2-.1.5-.2.8-.3.3-.1.5-.2.8-.4 1.2-.5 2.5-1 4-1.5s3.2-1 5-1.4c1.8-.4 3.7-.8 5.8-1.1 1-.2 2.1-.2 3.1-.4 1.1-.1 2.1-.2 3.2-.2 2.2-.1 4.4 0 6.6.1.6 0 1.1.1 1.7.1.3 0 .6.1.8.1l.8.1c1.1.1 2.2.3 3.2.5.3 0 .5.1.8.2.3.1.5.1.8.2.3.1.5.1.8.2l.4.1c.1 0 .3.1.4.1.5.1 1 .3 1.5.4.2.1.5.1.7.2.2.1.5.2.7.2.5.2 1 .3 1.4.5.5.2.9.3 1.4.5.4.2.9.3 1.3.5l1.2.6 1.2.6c.4.2.8.4 1.1.6.4.2.7.4 1.1.6.3.2.7.4 1 .6l.9.6.9.6c.5.4 1.1.8 1.5 1.1.2.2.4.4.7.5.2.2.4.3.6.5.4.3.7.6 1 .9l1.8 1.8s-.9-.5-2.4-1.4l-.6-.3c-.2-.1-.4-.2-.7-.4-.5-.2-.9-.5-1.5-.8-1.1-.5-2.3-1.1-3.7-1.7-.3-.1-.7-.3-1-.5-.4-.1-.7-.3-1.1-.4-.4-.1-.7-.3-1.1-.4-.4-.1-.8-.3-1.2-.4-.4-.1-.8-.3-1.2-.4-.4-.1-.8-.3-1.3-.4-.2-.1-.4-.1-.6-.2-.2-.1-.4-.1-.7-.2-.4-.1-.9-.2-1.3-.3-.2-.1-.5-.1-.7-.2-.2-.1-.5-.1-.7-.2-.5-.1-.9-.2-1.4-.3-.1 0-.2-.1-.4-.1l-.4-.1c-.2 0-.5-.1-.7-.1-.2 0-.5-.1-.7-.1-.2 0-.5-.1-.7-.1-1-.1-2-.3-3-.4l-.8-.1c-.3 0-.5-.1-.8-.1-.5 0-1-.1-1.5-.1-2-.1-4.1-.2-6.1-.2h-3.1c-.5 0-1 .1-1.5.1h-.7c-.2 0-.5 0-.7.1-1.9.1-3.8.4-5.5.6-.4.1-.9.1-1.3.2s-.8.1-1.3.2c-.2 0-.4.1-.6.1-.2 0-.4.1-.6.1-.2.4-.6.5-1 .5-.8.1-1.5.3-2.2.4-.3.1-.7.1-1 .2-.3.1-.6.1-1 .2-.6.1-1.2.3-1.7.4-.5.1-1 .3-1.5.4-.9.2-1.6.4-2 .6-.5.2-.7.2-.7.2z"/><defs><filter id="Adobe_OpacityMaskFilter_2_" filterUnits="userSpaceOnUse" x="-5.9" y="70.1" width="121.3" height="19.1"><feFlood result="back" flood-color="#fff" flood-opacity="1"/><feBlend in="SourceGraphic" in2="back"/></filter></defs><mask maskUnits="userSpaceOnUse" x="-5.9" y="70.1" width="121.3" height="19.1" id="XMLID_18_"><g id="XMLID_12_" class="st14"><defs><filter id="Adobe_OpacityMaskFilter_3_" filterUnits="userSpaceOnUse" x="-5.9" y="70.1" width="121.3" height="19.1"><feFlood result="back" flood-color="#fff" flood-opacity="1"/><feBlend in="SourceGraphic" in2="back"/></filter></defs><linearGradient id="XMLID_19_" gradientUnits="userSpaceOnUse" x1="-5.911" y1="79.618" x2="115.357" y2="79.618"><stop offset="0"/><stop offset=".043" stop-color="#272727"/><stop offset=".109" stop-color="#5C5C5C"/><stop offset=".176" stop-color="#8A8A8A"/><stop offset=".243" stop-color="#B0B0B0"/><stop offset=".309" stop-color="#CDCDCD"/><stop offset=".374" stop-color="#E2E2E2"/><stop offset=".438" stop-color="#EEE"/><stop offset=".5" stop-color="#F2F2F2"/><stop offset=".562" stop-color="#EEE"/><stop offset=".626" stop-color="#E2E2E2"/><stop offset=".691" stop-color="#CDCDCD"/><stop offset=".757" stop-color="#B0B0B0"/><stop offset=".824" stop-color="#8A8A8A"/><stop offset=".891" stop-color="#5C5C5C"/><stop offset=".957" stop-color="#272727"/><stop offset="1"/></linearGradient><path id="XMLID_13_" class="st16" d="M114.9 84.4c-.3-.6-.8-1.4-1.7-2.5-1.7-2.1-4.6-5-10.5-7.7-2.9-1.3-6.6-2.5-11-3.3-4.3-.8-9.3-1-14.2-.7-4.9.3-9.8 1.1-14.3 2.2s-8.8 2.5-12.7 4.1c-1.8.7-3.7 1.5-5.5 2.2-1.7.6-3.4 1.3-5.2 1.8-3.6 1.1-7.2 2.1-10.8 2.7-3.6.6-7.1.9-10.4.8-3.3-.1-6.4-.6-9.1-1.4-2.6-.7-5-1.6-7-2.6-1.9-1-3.6-2-4.8-2.8-1.2-.9-2.2-1.6-2.8-2.1-.6-.5-.9-.8-.9-.8l.3.9c.3.6.6 1.5 1.4 2.5.7 1.1 1.7 2.4 3.3 3.7 1.6 1.4 3.8 2.9 6.8 4.2 1.5.7 3.3 1.3 5.2 1.8 1.9.5 4.1 1 6.3 1.2 4.5.6 9.5.5 14.3 0 4.8-.6 9.4-1.6 13.8-2.8 2.2-.6 4.3-1.3 6.4-2.1 1.9-.7 3.8-1.5 5.7-2.2 3.4-1.4 7.1-2.6 10.7-3.7 3.7-1 7.3-1.8 11-2.2 3.6-.4 7.2-.5 10.5-.2s6.5.9 9.3 1.7c2.8.8 5.2 1.8 7.2 2.7 2 1 3.8 1.9 5.1 2.7 1.3.8 2.4 1.5 3 2 .7.5 1 .7 1 .7s0-.2-.4-.8z"/></g></mask><linearGradient id="XMLID_27_" gradientUnits="userSpaceOnUse" x1="-5.911" y1="79.618" x2="115.357" y2="79.618"><stop offset="0" stop-color="#151011"/><stop offset=".011" stop-color="#1D181A"/><stop offset=".082" stop-color="#484243"/><stop offset=".154" stop-color="#726C6C"/><stop offset=".225" stop-color="#9C9696"/><stop offset=".295" stop-color="#C0BDBD"/><stop offset=".365" stop-color="#DEDCDC"/><stop offset=".434" stop-color="#F3F2F2"/><stop offset=".5" stop-color="#FFF"/><stop offset=".566" stop-color="#F3F2F2"/><stop offset=".635" stop-color="#DEDCDC"/><stop offset=".705" stop-color="#C0BDBD"/><stop offset=".775" stop-color="#9C9696"/><stop offset=".846" stop-color="#726C6C"/><stop offset=".918" stop-color="#484243"/><stop offset=".989" stop-color="#1D181A"/><stop offset="1" stop-color="#151011"/></linearGradient><path id="XMLID_9_" class="st17" d="M114.9 84.4c-.3-.6-.8-1.4-1.7-2.5-1.7-2.1-4.6-5-10.5-7.7-2.9-1.3-6.6-2.5-11-3.3-4.3-.8-9.3-1-14.2-.7-4.9.3-9.8 1.1-14.3 2.2s-8.8 2.5-12.7 4.1c-1.8.7-3.7 1.5-5.5 2.2-1.7.6-3.4 1.3-5.2 1.8-3.6 1.1-7.2 2.1-10.8 2.7-3.6.6-7.1.9-10.4.8-3.3-.1-6.4-.6-9.1-1.4-2.6-.7-5-1.6-7-2.6-1.9-1-3.6-2-4.8-2.8-1.2-.9-2.2-1.6-2.8-2.1-.6-.5-.9-.8-.9-.8l.3.9c.3.6.6 1.5 1.4 2.5.7 1.1 1.7 2.4 3.3 3.7 1.6 1.4 3.8 2.9 6.8 4.2 1.5.7 3.3 1.3 5.2 1.8 1.9.5 4.1 1 6.3 1.2 4.5.6 9.5.5 14.3 0 4.8-.6 9.4-1.6 13.8-2.8 2.2-.6 4.3-1.3 6.4-2.1 1.9-.7 3.8-1.5 5.7-2.2 3.4-1.4 7.1-2.6 10.7-3.7 3.7-1 7.3-1.8 11-2.2 3.6-.4 7.2-.5 10.5-.2s6.5.9 9.3 1.7c2.8.8 5.2 1.8 7.2 2.7 2 1 3.8 1.9 5.1 2.7 1.3.8 2.4 1.5 3 2 .7.5 1 .7 1 .7s0-.2-.4-.8z"/><path id="XMLID_8_" class="st18" d="M114.9 84.4c-.3-.6-.8-1.4-1.7-2.5-1.7-2.1-4.6-5-10.5-7.7-2.9-1.3-6.6-2.5-11-3.3-4.3-.8-9.3-1-14.2-.7-4.9.3-9.8 1.1-14.3 2.2s-8.8 2.5-12.7 4.1c-1.8.7-3.7 1.5-5.5 2.2-1.7.6-3.4 1.3-5.2 1.8-3.6 1.1-7.2 2.1-10.8 2.7-3.6.6-7.1.9-10.4.8-3.3-.1-6.4-.6-9.1-1.4-2.6-.7-5-1.6-7-2.6-1.9-1-3.6-2-4.8-2.8-1.2-.9-2.2-1.6-2.8-2.1-.6-.5-.9-.8-.9-.8l.3.9c.3.6.6 1.5 1.4 2.5.7 1.1 1.7 2.4 3.3 3.7 1.6 1.4 3.8 2.9 6.8 4.2 1.5.7 3.3 1.3 5.2 1.8 1.9.5 4.1 1 6.3 1.2 4.5.6 9.5.5 14.3 0 4.8-.6 9.4-1.6 13.8-2.8 2.2-.6 4.3-1.3 6.4-2.1 1.9-.7 3.8-1.5 5.7-2.2 3.4-1.4 7.1-2.6 10.7-3.7 3.7-1 7.3-1.8 11-2.2 3.6-.4 7.2-.5 10.5-.2s6.5.9 9.3 1.7c2.8.8 5.2 1.8 7.2 2.7 2 1 3.8 1.9 5.1 2.7 1.3.8 2.4 1.5 3 2 .7.5 1 .7 1 .7s0-.2-.4-.8z"/><defs><filter id="Adobe_OpacityMaskFilter_4_" filterUnits="userSpaceOnUse" x="56.5" y="78.1" width="62.7" height="13.2"><feFlood result="back" flood-color="#fff" flood-opacity="1"/><feBlend in="SourceGraphic" in2="back"/></filter></defs><mask maskUnits="userSpaceOnUse" x="56.5" y="78.1" width="62.7" height="13.2" id="XMLID_28_"><g id="XMLID_5_" class="st19"><defs><filter id="Adobe_OpacityMaskFilter_5_" filterUnits="userSpaceOnUse" x="56.5" y="78.1" width="62.7" height="13.2"><feFlood result="back" flood-color="#fff" flood-opacity="1"/><feBlend in="SourceGraphic" in2="back"/></filter></defs><linearGradient id="XMLID_29_" gradientUnits="userSpaceOnUse" x1="56.486" y1="84.716" x2="119.198" y2="84.716"><stop offset="0"/><stop offset=".043" stop-color="#272727"/><stop offset=".109" stop-color="#5C5C5C"/><stop offset=".176" stop-color="#8A8A8A"/><stop offset=".243" stop-color="#B0B0B0"/><stop offset=".309" stop-color="#CDCDCD"/><stop offset=".374" stop-color="#E2E2E2"/><stop offset=".438" stop-color="#EEE"/><stop offset=".5" stop-color="#F2F2F2"/><stop offset=".562" stop-color="#EEE"/><stop offset=".626" stop-color="#E2E2E2"/><stop offset=".691" stop-color="#CDCDCD"/><stop offset=".757" stop-color="#B0B0B0"/><stop offset=".824" stop-color="#8A8A8A"/><stop offset=".891" stop-color="#5C5C5C"/><stop offset=".957" stop-color="#272727"/><stop offset="1"/></linearGradient><path id="XMLID_6_" class="st21" d="M56.5 85.4s.2-.1.6-.4c.4-.2 1-.6 1.8-1 .4-.2.8-.4 1.3-.7.2-.1.5-.2.8-.3.3-.1.5-.2.8-.4 1.2-.5 2.5-1 4-1.5s3.2-1 5-1.4c1.8-.4 3.7-.8 5.8-1.1 1-.2 2.1-.2 3.1-.4 1.1-.1 2.1-.2 3.2-.2 2.2-.1 4.4 0 6.6.1.6 0 1.1.1 1.7.1.3 0 .6.1.8.1l.8.1c1.1.1 2.2.3 3.2.5.3 0 .5.1.8.2.3.1.5.1.8.2.3.1.5.1.8.2l.4.1c.1 0 .3.1.4.1.5.1 1 .3 1.5.4.2.1.5.1.7.2.2.1.5.2.7.2.5.2 1 .3 1.4.5.5.2.9.3 1.4.5.4.2.9.3 1.3.5l1.2.6 1.2.6c.4.2.8.4 1.1.6.4.2.7.4 1.1.6.3.2.7.4 1 .6l.9.6.9.6c.5.4 1.1.8 1.5 1.1.2.2.4.4.7.5.2.2.4.3.6.5.4.3.7.6 1 .9l1.8 1.8s-.9-.5-2.4-1.4l-.6-.3c-.2-.1-.4-.2-.7-.4-.5-.2-.9-.5-1.5-.8-1.1-.5-2.3-1.1-3.7-1.7-.3-.1-.7-.3-1-.5-.4-.1-.7-.3-1.1-.4-.4-.1-.7-.3-1.1-.4-.4-.1-.8-.3-1.2-.4-.4-.1-.8-.3-1.2-.4-.4-.1-.8-.3-1.3-.4-.2-.1-.4-.1-.6-.2-.2-.1-.4-.1-.7-.2-.4-.1-.9-.2-1.3-.3-.2-.1-.5-.1-.7-.2-.2-.1-.5-.1-.7-.2-.5-.1-.9-.2-1.4-.3-.1 0-.2-.1-.4-.1l-.4-.1c-.2 0-.5-.1-.7-.1-.2 0-.5-.1-.7-.1-.2 0-.5-.1-.7-.1-1-.1-2-.3-3-.4l-.8-.1c-.3 0-.5-.1-.8-.1-.5 0-1-.1-1.5-.1-2-.1-4.1-.2-6.1-.2h-3.1c-.5 0-1 .1-1.5.1h-.7c-.2 0-.5 0-.7.1-1.9.1-3.8.4-5.5.6-.4.1-.9.1-1.3.2s-.8.1-1.3.2c-.2 0-.4.1-.6.1-.2 0-.4.1-.6.1-.2.4-.6.5-1 .5-.8.1-1.5.3-2.2.4-.3.1-.7.1-1 .2-.3.1-.6.1-1 .2-.6.1-1.2.3-1.7.4-.5.1-1 .3-1.5.4-.9.2-1.6.4-2 .6-.5.2-.7.2-.7.2z"/></g></mask><linearGradient id="XMLID_30_" gradientUnits="userSpaceOnUse" x1="56.486" y1="84.716" x2="119.198" y2="84.716"><stop offset="0" stop-color="#151011"/><stop offset=".011" stop-color="#1D181A"/><stop offset=".082" stop-color="#484243"/><stop offset=".154" stop-color="#726C6C"/><stop offset=".225" stop-color="#9C9696"/><stop offset=".295" stop-color="#C0BDBD"/><stop offset=".365" stop-color="#DEDCDC"/><stop offset=".434" stop-color="#F3F2F2"/><stop offset=".5" stop-color="#FFF"/><stop offset=".566" stop-color="#F3F2F2"/><stop offset=".635" stop-color="#DEDCDC"/><stop offset=".705" stop-color="#C0BDBD"/><stop offset=".775" stop-color="#9C9696"/><stop offset=".846" stop-color="#726C6C"/><stop offset=".918" stop-color="#484243"/><stop offset=".989" stop-color="#1D181A"/><stop offset="1" stop-color="#151011"/></linearGradient><path id="XMLID_2_" class="st22" d="M56.5 85.4s.2-.1.6-.4c.4-.2 1-.6 1.8-1 .4-.2.8-.4 1.3-.7.2-.1.5-.2.8-.3.3-.1.5-.2.8-.4 1.2-.5 2.5-1 4-1.5s3.2-1 5-1.4c1.8-.4 3.7-.8 5.8-1.1 1-.2 2.1-.2 3.1-.4 1.1-.1 2.1-.2 3.2-.2 2.2-.1 4.4 0 6.6.1.6 0 1.1.1 1.7.1.3 0 .6.1.8.1l.8.1c1.1.1 2.2.3 3.2.5.3 0 .5.1.8.2.3.1.5.1.8.2.3.1.5.1.8.2l.4.1c.1 0 .3.1.4.1.5.1 1 .3 1.5.4.2.1.5.1.7.2.2.1.5.2.7.2.5.2 1 .3 1.4.5.5.2.9.3 1.4.5.4.2.9.3 1.3.5l1.2.6 1.2.6c.4.2.8.4 1.1.6.4.2.7.4 1.1.6.3.2.7.4 1 .6l.9.6.9.6c.5.4 1.1.8 1.5 1.1.2.2.4.4.7.5.2.2.4.3.6.5.4.3.7.6 1 .9l1.8 1.8s-.9-.5-2.4-1.4l-.6-.3c-.2-.1-.4-.2-.7-.4-.5-.2-.9-.5-1.5-.8-1.1-.5-2.3-1.1-3.7-1.7-.3-.1-.7-.3-1-.5-.4-.1-.7-.3-1.1-.4-.4-.1-.7-.3-1.1-.4-.4-.1-.8-.3-1.2-.4-.4-.1-.8-.3-1.2-.4-.4-.1-.8-.3-1.3-.4-.2-.1-.4-.1-.6-.2-.2-.1-.4-.1-.7-.2-.4-.1-.9-.2-1.3-.3-.2-.1-.5-.1-.7-.2-.2-.1-.5-.1-.7-.2-.5-.1-.9-.2-1.4-.3-.1 0-.2-.1-.4-.1l-.4-.1c-.2 0-.5-.1-.7-.1-.2 0-.5-.1-.7-.1-.2 0-.5-.1-.7-.1-1-.1-2-.3-3-.4l-.8-.1c-.3 0-.5-.1-.8-.1-.5 0-1-.1-1.5-.1-2-.1-4.1-.2-6.1-.2h-3.1c-.5 0-1 .1-1.5.1h-.7c-.2 0-.5 0-.7.1-1.9.1-3.8.4-5.5.6-.4.1-.9.1-1.3.2s-.8.1-1.3.2c-.2 0-.4.1-.6.1-.2 0-.4.1-.6.1-.2.4-.6.5-1 .5-.8.1-1.5.3-2.2.4-.3.1-.7.1-1 .2-.3.1-.6.1-1 .2-.6.1-1.2.3-1.7.4-.5.1-1 .3-1.5.4-.9.2-1.6.4-2 .6-.5.2-.7.2-.7.2z"/></g><path class="st23" d="M100.9 103.4c-.5.5-1 1.1-1.4 1.7-.4.6-.7 1.2-1 1.7-.1-.7-.1-1.4-.2-2.3-.1-.9-.4-2.1-.6-3.2l-.6-2c-.2-1-.6-2.1-1-3.2-.4-1.2-1-2.5-1.7-3.8-.6-1.3-1.3-2.5-2-3.7-.7-1.2-1.4-2.3-2.2-3.4.5-1.8 1-3.7 1.4-5.2.4-1.5.8-2.8 1.1-3.9.3-1.1.6-2.1.9-3.1-.6 1-1.3 2-1.9 3-.6 1.1-1.2 2.2-1.7 3.4-.5 1.1-1 2.3-1.5 3.4-.6-.8-1.1-1.6-1.8-2.5-.7-.8-1.4-1.8-2-2.4-.6-.6-.9-1-1.3-1.3-.4-.4-.6-.6-.8-.9-.3-.3-.6-.7-.9-1 0-3.2-.1-6.3-.1-8.9 0-2.6.1-4.6.4-6.9.3-2.2.7-4.7 1.1-7.1.3-.1.7-.2.9-.5.3-.2.5-.5 1.2-2.6.8-2.1 2.1-5.9 3.1-8.8 1-2.9 1.7-4.8 2.2-6.2.5-1.4.7-2.2.7-2.9.1-.7-.1-1.3-.5-1.7-.4-.4-1.1-.7-1.8-.6-.7 0-1.3.4-2.1 1.4-.7 1.1-1.5 2.8-2.4 5.1-.9 2.3-1.9 5-2.5 7.1-.7 2.1-1 3.7-1.2 4.9-.2 1.2-.2 2.1 0 2.8.2.7.6 1.2 1 1.7-.3 1.5-.5 3.1-.8 4.8-.3 1.7-.5 3.7-.7 5.4-.2 1.8-.2 3.3-.2 5.2v6.3c-.5-.5-.9-1-1.5-1.6-.6-.6-1.2-1.2-1.9-1.8-.1-1.2-.3-2.4-.3-3.6-.1-1.2-.1-2.5 0-3.6 0-1.1.1-2.1.2-3.1-.3 1-.6 2-.8 3.1-.2 1.1-.3 2.4-.4 3.4-.1 1 0 1.8 0 2.6-.8-.7-1.5-1.4-2.5-2.1-1-.7-2.2-1.6-3.4-2.2-1.2-.7-2.5-1.3-3.8-1.9 1.3 1 2.5 1.9 3.6 2.9 1.1.9 2 1.8 3 2.7 1 .9 2 1.9 3 2.8 0 2 0 4 .1 6.1.1 2.1.2 4.3.4 6.5-.5-.7-1-1.4-1.9-2.4-.9-1.1-2.1-2.5-3.6-4.2-1.5-1.7-3.3-3.7-5.1-5.6-.1-.3-.2-.7-.3-1.2-.2-.6-.4-1.3-.9-2.1s-1.3-1.6-2-2.4c-.8-.8-1.5-1.6-3-3.1s-3.8-3.6-5.2-4.9c-1.4-1.3-1.8-1.6-2.2-1.8-.5-.2-1-.2-1.5-.1-.5.2-1 .5-1.3.9-.3.4-.5 1-.5 1.5s.3 1.1 1.1 1.9c.8.8 2.1 2 3.4 3.2 1.3 1.3 2.7 2.6 3.8 3.7 1.1 1.1 1.8 1.9 2.5 2.6.7.7 1.4 1.3 2.2 1.8.9.4 2 .6 3.1.8 1.2 1.4 2.5 2.8 3.6 4.2 1.2 1.4 2.3 2.7 3.7 4.5 1.4 1.8 3 4.1 4.7 6.3l.9 5.1c.3 1.6.7 3.2 1.1 4.8.4 1.6.8 3.1 1.3 4.7-1.1-2-2.2-4.1-3.3-5.9-1.1-1.8-2.1-3.3-3.1-4.6-1-1.3-2-2.4-3-3.4s-2.1-1.8-3.1-2.6c1.1 1.4 2.2 2.9 3.5 4.7 1.3 1.8 2.7 4 3.8 6.1 1.1 2 1.8 3.9 2.4 5.7.6 1.5 2.2 8.2 2.8 10.8h8l-.3-1.7c0 .1-.2-1.7-.2-1.6v-5.4c.1-1.7.2-3.3.4-4.9.2-1.7.5-3.4.7-4.7.2-1.3.4-2 .6-2.9 0 .1.2-.6.2-.5l.4-1.4s0 .1 0 0c.6 1.1 1.2 2.3 1.8 3.4.6 1.1 1 2.2 1.5 3.5.5 1.3.9 2.8 1.2 3.9.3 1.1.5 1.9.7 2.6-.3.4-.5.8-.8 1.3-.2.5-.5 1-.6 1.5-.2.4-.3.8-.4 1.1v-.1l.1 1.3-.1 4.4h6.8c0-.9-.1-1.8 0-2.7.1-.9.2-2 .5-2.8.3-.8.6-1.5 1-2.2.4-.7.9-1.5 1.4-2.3-.5.4-1 .7-1.6 1.2zM79.6 88.7c-.5-.9-.7-1.3-.9-1.7-.3-1.7-.6-3.4-.8-5-.2-1.6-.3-3.1-.5-4.7s-.3-3.4-.5-5.1c.6.6 1.1 1.1 1.6 1.7l1.7 1.7c.2 2.7.3 5.3.5 7.6.2 2.2.3 4 .5 5.4.2 1.5.4 2.6.6 3.8-.8-1.6-1.7-2.9-2.2-3.7zm4.1 16.5c-.2-.8-.4-1.6-.7-2.7-.3-1.1-.7-2.5-1.1-3.9-.4-1.4-.7-2.9-1-4.4.6 1.2 1.2 2.3 1.8 3.5l1.2 5.4c-.1.7-.1 1.4-.2 2.1zm3.1-15.9c-.3 1.2-.7 2.2-1 3.2-.3 1-.5 2.1-.6 2.9-.1.8-.2 1.4-.3 2-.4-1.5-.7-2.9-1-4.6-.3-1.6-.6-3.5-.8-5.2-.2-1.7-.5-3.7-.6-5.1-.1-1.7-.4-3.6-.5-5 .8.9 2.7 3.7 3.5 4.7.8 1 1.5 2.2 2.3 3.3-.4 1.3-.7 2.6-1 3.8z"/></g><g id="clouds"><g class="st24"><ellipse class="st25" cx="30.2" cy="21.3" rx="6.9" ry="5.3"/><ellipse class="st25" cx="42.8" cy="23.8" rx="9.7" ry="5.8"/><ellipse class="st25" cx="36.3" cy="19.5" rx="5.8" ry="6.2"/></g><ellipse class="st2" cx="30.2" cy="21.3" rx="6.9" ry="5.3"/><ellipse class="st2" cx="42.8" cy="23.8" rx="9.7" ry="5.8"/><ellipse class="st2" cx="36.3" cy="19.5" rx="5.8" ry="6.2"/><g class="st24"><ellipse transform="rotate(-.81 50.663 12.64)" class="st25" cx="50.6" cy="12.7" rx="4.3" ry="3.2"/><ellipse transform="rotate(-81.86 57.823 11.99)" class="st25" cx="57.8" cy="12" rx="4" ry="7.4"/></g><ellipse transform="rotate(-.81 50.663 12.64)" class="st2" cx="50.6" cy="12.7" rx="4.3" ry="3.2"/><ellipse transform="rotate(-81.86 57.823 11.99)" class="st2" cx="57.8" cy="12" rx="4" ry="7.4"/></g><g id="type" class="st26"><g class="st27"><text transform="translate(116.825 83.487)"><tspan x="0" y="0" class="st28 st29">M</tspan><tspan x="85.5" y="0" class="st28 st29 st30">A</tspan><tspan x="140.1" y="0" class="st28 st29">R</tspan><tspan x="202" y="0" class="st28 st29 st31">I</tspan><tspan x="234.9" y="0" class="st28 st29 st30">S</tspan><tspan x="280.6" y="0" class="st28 st29">A</tspan></text><text transform="translate(116.825 83.487)"><tspan x="0" y="0" class="st28 st29">M</tspan><tspan x="85.5" y="0" class="st28 st29 st30">A</tspan><tspan x="140.1" y="0" class="st28 st29">R</tspan><tspan x="202" y="0" class="st28 st29 st31">I</tspan><tspan x="234.9" y="0" class="st28 st29 st30">S</tspan><tspan x="280.6" y="0" class="st28 st29">A</tspan></text><text transform="translate(116.825 83.487)"><tspan x="0" y="0" class="st28 st29">M</tspan><tspan x="85.5" y="0" class="st28 st29 st30">A</tspan><tspan x="140.1" y="0" class="st28 st29">R</tspan><tspan x="202" y="0" class="st28 st29 st31">I</tspan><tspan x="234.9" y="0" class="st28 st29 st30">S</tspan><tspan x="280.6" y="0" class="st28 st29">A</tspan></text><text transform="translate(116.825 83.487)"><tspan x="0" y="0" class="st28 st29">M</tspan><tspan x="85.5" y="0" class="st28 st29 st30">A</tspan><tspan x="140.1" y="0" class="st28 st29">R</tspan><tspan x="202" y="0" class="st28 st29 st31">I</tspan><tspan x="234.9" y="0" class="st28 st29 st30">S</tspan><tspan x="280.6" y="0" class="st28 st29">A</tspan></text><linearGradient id="SVGID_5_" gradientUnits="userSpaceOnUse" x1="288.86" y1="20.593" x2="288.86" y2="84.881"><stop offset="0" stop-color="#00C0F3"/><stop offset=".212" stop-color="#00C0EF"/><stop offset=".407" stop-color="#00C1E7"/><stop offset=".595" stop-color="#2BC1DA"/><stop offset=".779" stop-color="#45C2CA"/><stop offset=".959" stop-color="#5BC3B3"/><stop offset="1" stop-color="#60C3AD"/></linearGradient><path class="st32" d="M133.3 22.7c.2-1.4.7-2.1 1.4-2.1s1.1.4 2.2 2.5l22.4 45.6 22.3-46.2c.7-1.3 1.1-2 1.8-2s1.2.8 1.5 2.5l7.5 50.2c.7 5.2 1.6 7.5 4 8.3 2.4.7 4 .8 5.1.8.7 0 1.3.1 1.3.6 0 .7-1 .9-2.1.9-2 0-13.4-.2-16.6-.4-1.9-.2-2.4-.4-2.4-.9 0-.4.3-.7.9-.9.5-.2.7-1.2.4-3.5l-5-35.6h-.3l-17.9 36.6c-1.9 3.9-2.3 4.6-3 4.6-.7 0-1.6-1.6-2.9-4.1-2-3.8-8.4-16.3-9.4-18.6-.7-1.7-5.7-11.4-8.5-17.5h-.3l-4.3 32c-.2 1.5-.2 2.5-.2 3.9 0 1.6 1.1 2.3 2.5 2.6 1.5.3 2.6.4 3.4.4.7 0 1.2.2 1.2.6 0 .7-.7.9-2 .9-3.4 0-7.1-.2-8.6-.2-1.6 0-5.5.2-8.1.2-.8 0-1.5-.2-1.5-.9 0-.4.5-.6 1.3-.6.7 0 1.2 0 2.5-.2 2.3-.5 3-3.7 3.4-6.5l8-53z"/><linearGradient id="SVGID_6_" gradientUnits="userSpaceOnUse" x1="288.86" y1="20.593" x2="288.86" y2="84.881"><stop offset="0" stop-color="#00C0F3"/><stop offset=".212" stop-color="#00C0EF"/><stop offset=".407" stop-color="#00C1E7"/><stop offset=".595" stop-color="#2BC1DA"/><stop offset=".779" stop-color="#45C2CA"/><stop offset=".959" stop-color="#5BC3B3"/><stop offset="1" stop-color="#60C3AD"/></linearGradient><path class="st33" d="M219.1 62.8c-.4 0-.6.2-.7.7L214 74.7c-.8 2.1-1.2 4-1.2 5 0 1.5.7 2.5 3.3 2.5h1.2c1 0 1.2.2 1.2.7 0 .7-.5.8-1.4.8-2.6 0-6.1-.2-8.7-.2-.9 0-5.4.2-9.7.2-1.1 0-1.6-.2-1.6-.8 0-.5.3-.7 1-.7s1.9-.1 2.5-.2c3.8-.5 5.3-3.3 7-7.4l20.6-50.8c1-2.4 1.5-3.3 2.3-3.3.7 0 1.2.7 2.1 2.6 2 4.5 15.1 37.3 20.3 49.8 3.1 7.4 5.5 8.5 7.2 8.9 1.2.2 2.5.3 3.4.3.7 0 1.1.1 1.1.7 0 .7-.7.8-3.8.8-3 0-8.9 0-15.5-.2-1.5-.1-2.5-.1-2.5-.7 0-.5.3-.7 1.1-.7.6-.2 1.1-.9.7-1.9L238 63.2c-.2-.4-.4-.6-.8-.6h-18.1zm16.7-4.1c.4 0 .5-.2.4-.5L228.8 38c-.1-.3-.2-.7-.4-.7s-.4.4-.5.7l-7.5 20.1c-.1.3 0 .6.3.6h15.1z"/><linearGradient id="SVGID_7_" gradientUnits="userSpaceOnUse" x1="288.86" y1="20.593" x2="288.86" y2="84.881"><stop offset="0" stop-color="#00C0F3"/><stop offset=".212" stop-color="#00C0EF"/><stop offset=".407" stop-color="#00C1E7"/><stop offset=".595" stop-color="#2BC1DA"/><stop offset=".779" stop-color="#45C2CA"/><stop offset=".959" stop-color="#5BC3B3"/><stop offset="1" stop-color="#60C3AD"/></linearGradient><path class="st34" d="M270.3 45.5c0-12.5 0-14.8-.2-17.4-.2-2.8-.8-4.1-3.5-4.7-.7-.2-2-.2-3.2-.2-.9 0-1.4-.2-1.4-.7 0-.6.6-.7 1.8-.7 4.3 0 9.5.2 11.2.2 2.8 0 9-.2 11.6-.2 5.2 0 10.7.5 15.1 3.5 2.3 1.6 5.6 5.7 5.6 11.2 0 6.1-2.5 11.6-10.8 18.4 7.3 9.2 13 16.5 17.8 21.6 4.6 4.8 8 5.3 9.2 5.6.9.2 1.6.2 2.3.2.7 0 1 .2 1 .7 0 .7-.6.8-1.6.8h-7.8c-4.6 0-6.6-.4-8.8-1.6-3.5-1.9-6.6-5.7-11.2-12.1-3.3-4.5-7.1-10.1-8.1-11.3-.4-.5-.9-.6-1.5-.6l-7.1-.2c-.4 0-.7.2-.7.7v1.1c0 7.6 0 14.1.4 17.5.2 2.4.7 4.2 3.2 4.5 1.2.2 3 .3 4 .3.7 0 1 .2 1 .7 0 .6-.6.8-1.6.8-4.8 0-10.8-.2-12.1-.2-1.6 0-6.7.2-10 .2-1.1 0-1.6-.2-1.6-.8 0-.4.3-.7 1.3-.7 1.2 0 2.2-.2 3-.3 1.6-.3 2-2.1 2.4-4.5.4-3.4.4-9.9.4-17.5V45.5zM280 52c0 .9.2 1.2.7 1.5 1.7.6 4.2.8 6.2.8 3.3 0 4.3-.3 5.8-1.4 2.5-1.8 4.8-5.6 4.8-12.3 0-11.6-7.7-15-12.5-15-2 0-3.5.1-4.3.3-.6.2-.7.5-.7 1.1v25z"/><linearGradient id="SVGID_8_" gradientUnits="userSpaceOnUse" x1="288.86" y1="20.593" x2="288.86" y2="84.881"><stop offset="0" stop-color="#00C0F3"/><stop offset=".212" stop-color="#00C0EF"/><stop offset=".407" stop-color="#00C1E7"/><stop offset=".595" stop-color="#2BC1DA"/><stop offset=".779" stop-color="#45C2CA"/><stop offset=".959" stop-color="#5BC3B3"/><stop offset="1" stop-color="#60C3AD"/></linearGradient><path class="st35" d="M332.2 45.5c0-12.5 0-14.8-.2-17.4-.2-2.8-1-4.2-2.8-4.6-.9-.2-2-.3-3-.3-.8 0-1.3-.2-1.3-.8 0-.5.7-.7 2-.7 3.1 0 8.3.2 10.7.2 2 0 6.9-.2 10-.2 1.1 0 1.7.2 1.7.7 0 .7-.5.8-1.3.8s-1.5.1-2.5.2c-2.2.4-2.9 1.8-3 4.7-.2 2.6-.2 4.9-.2 17.4V60c0 8 0 14.4.3 18 .2 2.2.8 3.7 3.3 4 1.1.2 3 .3 4.2.3.9 0 1.3.2 1.3.7 0 .6-.7.8-1.6.8-5.4 0-10.6-.2-12.8-.2-1.9 0-7.1.2-10.3.2-1.1 0-1.6-.2-1.6-.8 0-.4.3-.7 1.3-.7 1.2 0 2.2-.2 3-.3 1.6-.3 2.1-1.7 2.4-4.1.4-3.4.4-9.9.4-17.9V45.5z"/><linearGradient id="SVGID_9_" gradientUnits="userSpaceOnUse" x1="288.86" y1="20.593" x2="288.86" y2="84.881"><stop offset="0" stop-color="#00C0F3"/><stop offset=".212" stop-color="#00C0EF"/><stop offset=".407" stop-color="#00C1E7"/><stop offset=".595" stop-color="#2BC1DA"/><stop offset=".779" stop-color="#45C2CA"/><stop offset=".959" stop-color="#5BC3B3"/><stop offset="1" stop-color="#60C3AD"/></linearGradient><path class="st36" d="M360.7 82.7c-1.3-.6-1.6-1-1.6-2.8 0-4.5.3-9.4.4-10.7.1-1.2.3-2.1 1-2.1s.8.7.8 1.4c0 1.1.3 2.8.7 4.2 1.8 6.1 6.6 8.3 11.7 8.3 7.4 0 11-5 11-9.3 0-4-1.2-7.8-8-13.1l-3.8-3c-9-7.1-12.1-12.8-12.1-19.4 0-9 7.5-15.5 18.9-15.5 5.3 0 8.8.8 10.9 1.4.7.2 1.1.4 1.1 1 0 1.1-.3 3.4-.3 9.8 0 1.8-.2 2.5-.9 2.5-.6 0-.8-.5-.8-1.5 0-.7-.4-3.3-2.1-5.4-1.2-1.6-3.6-4-8.9-4-6.1 0-9.8 3.5-9.8 8.4 0 3.8 1.9 6.6 8.7 11.8l2.3 1.7c9.9 7.5 13.4 13.1 13.4 20.9 0 4.8-1.8 10.4-7.7 14.3-4.1 2.6-8.7 3.4-13 3.4-4.7-.1-8.4-.7-11.9-2.3z"/><linearGradient id="SVGID_10_" gradientUnits="userSpaceOnUse" x1="288.86" y1="20.593" x2="288.86" y2="84.881"><stop offset="0" stop-color="#00C0F3"/><stop offset=".212" stop-color="#00C0EF"/><stop offset=".407" stop-color="#00C1E7"/><stop offset=".595" stop-color="#2BC1DA"/><stop offset=".779" stop-color="#45C2CA"/><stop offset=".959" stop-color="#5BC3B3"/><stop offset="1" stop-color="#60C3AD"/></linearGradient><path class="st37" d="M414.2 62.8c-.4 0-.6.2-.7.7L409 74.7c-.8 2.1-1.2 4-1.2 5 0 1.5.7 2.5 3.3 2.5h1.2c1 0 1.2.2 1.2.7 0 .7-.5.8-1.4.8-2.6 0-6.1-.2-8.7-.2-.9 0-5.4.2-9.7.2-1.1 0-1.6-.2-1.6-.8 0-.5.3-.7 1-.7s1.9-.1 2.5-.2c3.8-.5 5.3-3.3 7-7.4l20.6-50.8c1-2.4 1.5-3.3 2.3-3.3.7 0 1.2.7 2 2.6 2 4.5 15.1 37.3 20.3 49.8 3.1 7.4 5.5 8.5 7.2 8.9 1.2.2 2.5.3 3.4.3.7 0 1.1.1 1.1.7 0 .7-.7.8-3.8.8-3 0-8.9 0-15.5-.2-1.5-.1-2.5-.1-2.5-.7 0-.5.3-.7 1.1-.7.6-.2 1.1-.9.7-1.9l-6.6-16.9c-.2-.4-.4-.6-.8-.6h-17.9zm16.7-4.1c.4 0 .5-.2.4-.5L423.9 38c-.1-.3-.2-.7-.4-.7s-.4.4-.5.7l-7.5 20.1c-.1.3 0 .6.3.6h15.1z"/></g><text transform="translate(119.825 109.392)" class="st27"><tspan x="0" y="0" class="st38 st39 st40 st41">a</tspan><tspan x="12.9" y="0" class="st38 st39 st40 st41"> NO</tspan><tspan x="51.9" y="0" class="st38 st39 st40 st41">AA</tspan><tspan x="80.5" y="0" class="st38 st39 st40 st41"> Mid-</tspan><tspan x="135.3" y="0" class="st38 st39 st40 st41">A</tspan><tspan x="149.6" y="0" class="st38 st39 st40 st41">tl</tspan><tspan x="164.3" y="0" class="st38 st39 st40 st41">a</tspan><tspan x="177.2" y="0" class="st38 st39 st40 st41">ntic RISA</tspan><tspan x="274.8" y="0" class="st38 st39 st40 st41"> </tspan><tspan x="282.1" y="0" class="st38 st39 st40 st41">tea</tspan><tspan x="316.6" y="0" class="st38 st39 st40">m</tspan></text></g><g id="type_outline"><linearGradient id="SVGID_11_" gradientUnits="userSpaceOnUse" x1="289.27" y1="19.936" x2="289.27" y2="84.881" gradientTransform="translate(.346 -.155)"><stop offset="0" stop-color="#00C0F3"/><stop offset=".212" stop-color="#00C0EF"/><stop offset=".407" stop-color="#00C1E7"/><stop offset=".595" stop-color="#2BC1DA"/><stop offset=".779" stop-color="#45C2CA"/><stop offset=".959" stop-color="#5BC3B3"/><stop offset="1" stop-color="#60C3AD"/></linearGradient><path class="st42" d="M118.4 82.7c0-.4.5-.6 1.3-.6.7 0 1.2 0 2.5-.2 2.3-.5 3-3.7 3.4-6.5l8.1-53.5c.2-1.4.7-2.1 1.4-2.1s1.1.4 2.2 2.5l22.4 46.2L182 21.7c.7-1.3 1.1-2 1.8-2s1.2.8 1.5 2.5l7.5 50.7c.7 5.2 1.6 7.5 4 8.3 2.4.7 4 .8 5.1.8.7 0 1.3.1 1.3.6 0 .7-1 .9-2.1.9-2 0-13.4-.2-16.6-.5-1.9-.2-2.4-.4-2.4-.9 0-.4.3-.7.9-.9.5-.2.7-1.2.4-3.5l-4.9-36.1h-.5l-17.9 37.2c-1.9 3.9-2.3 4.6-3 4.6-.7 0-1.6-1.6-2.9-4.1-2-3.8-8.4-16.3-9.4-18.6-.7-1.7-5.7-12.1-8.5-18.2h-.3l-4.3 32.6c-.2 1.5-.2 2.5-.2 3.9 0 1.6 1.1 2.3 2.5 2.6 1.5.3 2.6.4 3.4.4.7 0 1.2.2 1.2.6 0 .7-.7.9-2 .9-3.4 0-7.1-.2-8.6-.2-1.6 0-5.5.2-8.1.2-.8.1-1.5-.1-1.5-.8"/><linearGradient id="SVGID_12_" gradientUnits="userSpaceOnUse" x1="289.27" y1="19.936" x2="289.27" y2="84.881" gradientTransform="translate(.346 -.155)"><stop offset="0" stop-color="#00C0F3"/><stop offset=".212" stop-color="#00C0EF"/><stop offset=".407" stop-color="#00C1E7"/><stop offset=".595" stop-color="#2BC1DA"/><stop offset=".779" stop-color="#45C2CA"/><stop offset=".959" stop-color="#5BC3B3"/><stop offset="1" stop-color="#60C3AD"/></linearGradient><path class="st43" d="M220.2 62.2c-.4 0-.6.2-.7.7l-4.4 11.7c-.8 2.1-1.2 4-1.2 5 0 1.5.7 2.5 3.3 2.5h1.2c1 0 1.2.2 1.2.7 0 .7-.5.8-1.4.8-2.6 0-6.1-.2-8.7-.2-.9 0-5.4.2-9.7.2-1.1 0-1.6-.2-1.6-.8 0-.5.3-.7 1-.7s1.9-.1 2.5-.2c3.8-.5 5.3-3.3 7-7.4L229.3 23c1-2.4 1.5-3.3 2.3-3.3.7 0 1.2.7 2 2.6 2 4.5 15.1 38 20.3 50.4 3.1 7.4 5.5 8.5 7.2 8.9 1.2.2 2.5.3 3.4.3.7 0 1.1.1 1.1.7 0 .7-.7.8-3.8.8-3 0-8.9 0-15.5-.2-1.5-.1-2.5-.1-2.5-.7 0-.5.3-.7 1.1-.7.6-.2 1.1-.9.7-1.9L239 62.5c-.2-.4-.4-.6-.8-.6h-18zm16.8-4.1c.4 0 .5-.2.4-.5L230 37.3c-.1-.3-.2-.7-.4-.7s-.4.4-.5.7l-7.5 20.2c-.1.3 0 .6.3.6H237z"/><linearGradient id="SVGID_13_" gradientUnits="userSpaceOnUse" x1="289.27" y1="19.936" x2="289.27" y2="84.881" gradientTransform="translate(.346 -.155)"><stop offset="0" stop-color="#00C0F3"/><stop offset=".212" stop-color="#00C0EF"/><stop offset=".407" stop-color="#00C1E7"/><stop offset=".595" stop-color="#2BC1DA"/><stop offset=".779" stop-color="#45C2CA"/><stop offset=".959" stop-color="#5BC3B3"/><stop offset="1" stop-color="#60C3AD"/></linearGradient><path class="st44" d="M271.5 45.4c0-12.5 0-14.8-.2-17.4-.2-2.8-.8-4.1-3.5-4.7-.7-.2-2-.2-3.2-.2-.9 0-1.4-.2-1.4-.7 0-.6.6-.7 1.8-.7 4.3 0 9.5.2 11.2.2 2.8 0 9-.2 11.6-.2 5.2 0 10.7.5 15.1 3.5 2.3 1.6 5.6 5.7 5.6 11.2 0 6.1-2.5 11.6-10.8 18.4 7.3 9.2 13 16.5 17.8 21.6 4.6 4.8 8 5.3 9.2 5.6.9.2 1.6.2 2.3.2.7 0 1 .2 1 .7 0 .7-.6.8-1.6.8h-7.8c-4.6 0-6.6-.4-8.8-1.6-3.5-1.9-6.6-5.7-11.2-12.1-3.3-4.5-7.1-10.1-8.1-11.3-.4-.5-.9-.6-1.5-.6l-7.1-.2c-.4 0-.7.2-.7.7v1.1c0 7.6 0 14.1.4 17.5.2 2.4.7 4.2 3.2 4.5 1.2.2 3 .3 4 .3.7 0 1 .2 1 .7 0 .6-.6.8-1.6.8-4.8 0-10.8-.2-12.1-.2-1.6 0-6.7.2-10 .2-1.1 0-1.6-.2-1.6-.8 0-.4.3-.7 1.3-.7 1.2 0 2.2-.2 3-.3 1.6-.3 2-2.1 2.4-4.5.4-3.4.4-9.9.4-17.5V45.4zm9.7 6.4c0 .9.2 1.2.7 1.5 1.7.6 4.2.8 6.2.8 3.3 0 4.3-.3 5.8-1.4 2.5-1.8 4.8-5.6 4.8-12.3 0-11.6-7.7-15-12.5-15-2 0-3.5.1-4.3.3-.6.2-.7.5-.7 1.1v25z"/><linearGradient id="SVGID_14_" gradientUnits="userSpaceOnUse" x1="289.27" y1="19.936" x2="289.27" y2="84.881" gradientTransform="translate(.346 -.155)"><stop offset="0" stop-color="#00C0F3"/><stop offset=".212" stop-color="#00C0EF"/><stop offset=".407" stop-color="#00C1E7"/><stop offset=".595" stop-color="#2BC1DA"/><stop offset=".779" stop-color="#45C2CA"/><stop offset=".959" stop-color="#5BC3B3"/><stop offset="1" stop-color="#60C3AD"/></linearGradient><path class="st45" d="M333.4 45.4c0-12.5 0-14.8-.2-17.4-.2-2.8-1-4.2-2.8-4.6-.9-.2-2-.3-3-.3-.8 0-1.3-.2-1.3-.8 0-.5.7-.7 2-.7 3.1 0 8.3.2 10.7.2 2 0 6.9-.2 10-.2 1.1 0 1.7.2 1.7.7 0 .7-.5.8-1.3.8s-1.5.1-2.5.2c-2.2.4-2.9 1.8-3 4.7-.2 2.6-.2 4.9-.2 17.4v14.4c0 8 0 14.4.3 18 .2 2.2.8 3.7 3.3 4 1.1.2 3 .3 4.2.3.9 0 1.3.2 1.3.7 0 .6-.7.8-1.6.8-5.4 0-10.6-.2-12.8-.2-1.9 0-7.1.2-10.3.2-1.1 0-1.6-.2-1.6-.8 0-.4.3-.7 1.3-.7 1.2 0 2.2-.2 3-.3 1.6-.3 2.1-1.7 2.4-4.1.4-3.4.4-9.9.4-17.9V45.4z"/><linearGradient id="SVGID_15_" gradientUnits="userSpaceOnUse" x1="289.27" y1="19.936" x2="289.27" y2="84.881" gradientTransform="translate(.346 -.155)"><stop offset="0" stop-color="#00C0F3"/><stop offset=".212" stop-color="#00C0EF"/><stop offset=".407" stop-color="#00C1E7"/><stop offset=".595" stop-color="#2BC1DA"/><stop offset=".779" stop-color="#45C2CA"/><stop offset=".959" stop-color="#5BC3B3"/><stop offset="1" stop-color="#60C3AD"/></linearGradient><path class="st46" d="M361.9 82.6c-1.3-.6-1.6-1-1.6-2.8 0-4.5.3-9.4.4-10.7.1-1.2.3-2.1 1-2.1s.8.7.8 1.4c0 1.1.3 2.8.7 4.2 1.8 6.1 6.6 8.3 11.7 8.3 7.4 0 11-5 11-9.3 0-4-1.2-7.8-8-13.1l-3.8-3c-9-7.1-12.1-12.8-12.1-19.4 0-9 7.5-15.5 18.9-15.5 5.3 0 8.8.8 10.9 1.4.7.2 1.1.4 1.1 1 0 1.1-.3 3.4-.3 9.8 0 1.8-.2 2.5-.9 2.5-.6 0-.8-.5-.8-1.5 0-.7-.4-3.3-2.1-5.4-1.2-1.6-3.6-4-8.9-4-6.1 0-9.8 3.5-9.8 8.4 0 3.8 1.9 6.6 8.7 11.8l2.3 1.7c9.9 7.5 13.4 13.1 13.4 20.9 0 4.8-1.8 10.4-7.7 14.3-4.1 2.6-8.7 3.4-13 3.4-4.7-.2-8.4-.7-11.9-2.3z"/><linearGradient id="SVGID_16_" gradientUnits="userSpaceOnUse" x1="289.27" y1="19.936" x2="289.27" y2="84.881" gradientTransform="translate(.346 -.155)"><stop offset="0" stop-color="#00C0F3"/><stop offset=".212" stop-color="#00C0EF"/><stop offset=".407" stop-color="#00C1E7"/><stop offset=".595" stop-color="#2BC1DA"/><stop offset=".779" stop-color="#45C2CA"/><stop offset=".959" stop-color="#5BC3B3"/><stop offset="1" stop-color="#60C3AD"/></linearGradient><path class="st47" d="M415.3 62.2c-.4 0-.6.2-.7.7l-4.4 11.7c-.8 2.1-1.2 4-1.2 5 0 1.5.7 2.5 3.3 2.5h1.2c1 0 1.2.2 1.2.7 0 .7-.5.8-1.4.8-2.6 0-6.1-.2-8.7-.2-.9 0-5.4.2-9.7.2-1.1 0-1.6-.2-1.6-.8 0-.5.3-.7 1-.7s1.9-.1 2.5-.2c3.8-.5 5.3-3.3 7-7.4L424.4 23c1-2.4 1.5-3.3 2.3-3.3.7 0 1.2.7 2.1 2.6 2 4.5 15.1 38 20.3 50.4 3.1 7.4 5.5 8.5 7.2 8.9 1.2.2 2.5.3 3.4.3.7 0 1.1.1 1.1.7 0 .7-.7.8-3.8.8-3 0-8.9 0-15.5-.2-1.5-.1-2.5-.1-2.5-.7 0-.5.3-.7 1.1-.7.6-.2 1.1-.9.7-1.9l-6.6-17.4c-.2-.4-.4-.6-.8-.6h-18.1zm16.7-4.1c.4 0 .5-.2.4-.5L425 37.3c-.1-.3-.2-.7-.4-.7s-.4.4-.5.7l-7.5 20.2c-.1.3 0 .6.3.6H432z"/><path class="st38" d="M121.1 103.7c.3-2.5 2.6-2.8 4.8-2.8 3.8 0 4.6 1.2 4.6 2.7v4c0 .7.1 1.2.3 1.6h-2.6c-.1-.3-.2-.6-.2-.9-.9.9-2.6 1.2-3.8 1.2-2.1 0-3.6-.7-3.6-2.6 0-2 1.7-2.4 3.3-2.5l2.8-.2c.8-.1 1.1-.2 1.1-.8 0-.6-.5-1-2.1-1-1.1 0-1.7.1-2.1 1.2h-2.5zm6.8 1.6c-.5.2-1 .3-1.6.3l-1.5.1c-.9.1-1.4.3-1.4 1s.7 1.1 1.7 1.1c1.3 0 2.8-.6 2.8-2v-.5zm22.6-6.8h2.8v10.7h-3.2l-5.8-7.5v7.5h-2.8V98.5h3.4l5.6 7.5v-7.5zm12.7-.3c5.8 0 6.7 3.4 6.7 5.7 0 2.2-.9 5.7-6.7 5.7s-6.7-3.4-6.7-5.7c0-2.3.9-5.7 6.7-5.7zm0 9.3c2.6 0 3.6-1.9 3.6-3.6 0-1.7-.9-3.6-3.6-3.6-2.6 0-3.6 2-3.6 3.6s1 3.6 3.6 3.6zm17.6-.5h-4.9l-.9 2.2h-3.1l4.7-10.7h3.5l4.7 10.7h-3.1l-.9-2.2zm-2.5-6.2l-1.7 4.2h3.4l-1.7-4.2zm16.8 6.2h-4.9l-.9 2.2h-3.1l4.7-10.7h3.5l4.7 10.7H196l-.9-2.2zm-2.5-6.2l-1.7 4.2h3.4l-1.7-4.2zm27.1-2.3h4.3v10.7h-2.8v-8.6l-3.4 8.6h-2.4l-3.4-8.6v8.6h-3V98.5h4.3l3.2 7.7 3.2-7.7zm8-.2h2.6v1.9h-2.6v-1.9zm0 2.9h2.6v8h-2.6v-8zm13.5 7c-.9 1-2 1.3-3.2 1.3-2.5 0-4.5-1.4-4.5-4.2 0-2.6 2-4.3 4.5-4.3 1.5 0 2.6.5 3.1 1.2v-3.8h2.6v10.9h-2.5v-1.1zm-2.5-.6c1.3 0 2.5-.8 2.5-2.3 0-1.5-1.2-2.3-2.5-2.3s-2.5.8-2.5 2.3c.1 1.5 1.2 2.3 2.5 2.3zm8.7-3.7h5.4v2h-5.4v-2zm16.8 3.1h-4.9l-.9 2.2h-3.1l4.7-10.7h3.5l4.7 10.7h-3.1l-.9-2.2zm-2.5-6.2L260 105h3.4l-1.7-4.2zm9.8-2.1h2.6v2.5h2.1v1.8h-2.1v3.8c0 .6.2.8.9.8.5 0 .9 0 1.3-.1v1.8c-.5.1-1.5.1-2.1.1-2.5 0-2.7-.9-2.7-2.4v-4h-1.7v-1.8h1.7v-2.5zm7.6-.4h2.6v10.9h-2.6V98.3zm6.3 5.4c.3-2.5 2.6-2.8 4.8-2.8 3.8 0 4.6 1.2 4.6 2.7v4c0 .7.1 1.2.3 1.6h-2.6c-.1-.3-.2-.6-.2-.9-.9.9-2.6 1.2-3.8 1.2-2.1 0-3.6-.7-3.6-2.6 0-2 1.7-2.4 3.3-2.5l2.8-.2c.8-.1 1.1-.2 1.1-.8 0-.6-.5-1-2.1-1-1.1 0-1.7.1-2.1 1.2h-2.5zm6.8 1.6c-.5.2-1 .3-1.6.3l-1.5.1c-.9.1-1.4.3-1.4 1s.7 1.1 1.7 1.1c1.3 0 2.8-.6 2.8-2v-.5zm12.8-.6c0-1.1-.6-1.7-1.8-1.7-1.2 0-2.3.6-2.3 2.3v3.9h-2.6v-8h2.5v1.2c.5-.7 1.7-1.4 3.3-1.4 1.4 0 3.5.5 3.5 2.9v5.4H305v-4.6zm7-6h2.6v2.5h2.1v1.8h-2.1v3.8c0 .6.2.8.9.8.5 0 .9 0 1.3-.1v1.8c-.5.1-1.5.1-2.1.1-2.5 0-2.7-.9-2.7-2.4v-4h-1.7v-1.8h1.7v-2.5zm7.7-.4h2.6v1.9h-2.6v-1.9zm0 2.9h2.6v8h-2.6v-8zm13.3 3c-.3-1.1-1.1-1.4-2.2-1.4-1.6 0-2.6.9-2.6 2.5s.9 2.5 2.6 2.5c1.2 0 2.1-.6 2.2-1.6h2.7c-.5 2.9-2.5 3.5-5.1 3.5-3 0-5.1-1.3-5.1-4.3s2.1-4.3 5.3-4.3c2 0 4.4.6 4.9 3.3H333zm13.3-5.7h7.8c3 0 3.5 1.8 3.5 2.9 0 1.3-.5 2.1-1.7 2.6 1.3.2 1.5 1.8 1.5 2.9 0 .5 0 1.8.6 2.3h-3.2c-.3-.5-.3-.9-.3-2.1 0-1.5-.6-1.9-1.5-1.9h-3.6v3.9h-2.9V98.5zm2.9 4.8h3.9c.6 0 1.4-.4 1.4-1.4 0-1.1-.8-1.3-1.5-1.3h-3.7v2.7zm11.7-4.8h2.9v10.7h-2.9V98.5zm14 3.1c-.2-1.4-1.5-1.5-2.7-1.5-1.2 0-2 .5-2 1.3 0 .6.5.9 1.2 1l3.6.6c2 .3 3.4 1 3.4 3s-1.3 3.6-5.6 3.6c-2.6 0-6-.3-6-3.7h3.3c0 1.5 1.5 1.7 2.8 1.7 1.4 0 2.3-.4 2.3-1.3 0-.8-.7-1-1.8-1.2l-2.7-.4c-1.9-.3-3.7-.8-3.7-3 0-2.4 2-3.4 5.3-3.4 2.2 0 5.5.4 5.7 3.4h-3.1zm14.4 5.4h-4.9l-.9 2.2h-3.1l4.7-10.7h3.5l4.7 10.7h-3.1l-.9-2.2zm-2.4-6.2l-1.7 4.2h3.4l-1.7-4.2zm17.1-2.1h2.6v2.5h2.1v1.8h-2.1v3.8c0 .6.2.8.9.8.5 0 .9 0 1.3-.1v1.8c-.5.1-1.5.1-2.1.1-2.5 0-2.7-.9-2.7-2.4v-4h-1.7v-1.8h1.7v-2.5zm17.5 8.1c-.8 1.9-2.6 2.7-5 2.7-3.2 0-5.3-1.3-5.3-4.3s2.1-4.3 5.3-4.3c3.5 0 5.2 1.8 5.2 4.8v.2H414c0 .8.8 1.9 2.6 1.9 1.1 0 1.8-.4 2.2-1h2.7zm-2.6-2.4c0-.5-.6-1.8-2.5-1.8-2.1 0-2.5 1.6-2.5 1.8h5zm5.9-.7c.3-2.5 2.6-2.8 4.8-2.8 3.8 0 4.6 1.2 4.6 2.7v4c0 .7.1 1.2.3 1.6h-2.6c-.1-.3-.2-.6-.2-.9-.9.9-2.6 1.2-3.8 1.2-2.1 0-3.6-.7-3.6-2.6 0-2 1.7-2.4 3.3-2.5l2.8-.2c.8-.1 1.1-.2 1.1-.8 0-.6-.5-1-2.1-1-1.1 0-1.7.1-2.1 1.2h-2.5zm6.8 1.6c-.5.2-1 .3-1.6.3l-1.5.1c-.9.1-1.4.3-1.4 1s.7 1.1 1.7 1.1c1.3 0 2.8-.6 2.8-2v-.5zm18.6-.9c0-1.1-.9-1.4-1.6-1.4-1.1 0-2 .6-2 1.9v4.3H444v-4.8c0-1.1-.9-1.4-1.6-1.4-1.1 0-2 .6-2 1.9v4.3h-2.6v-8h2.5v1.2c.5-.7 1.7-1.4 3.3-1.4 1.5 0 2.4.6 2.8 1.5.7-1 1.8-1.5 3.3-1.5 1.6 0 3.2.7 3.2 2.8v5.4h-2.6v-4.8z"/></g></svg>